# Blender v2.76 (sub 0) OBJ File: 'mine.blend'
# www.blender.org
mtllib mine.mtl
o Cube
v -0.500000 -0.200000 -0.000000
v -0.000000 0.000000 0.000000
v 0.500000 0.000000 0.000000
v -0.000000 -0.200000 0.500000
v -0.500000 -0.200000 -0.000000
v 0.000000 -0.200000 -0.500000
v 0.000000 -0.100000 -0.500000
v 0.500000 -0.034341 -0.500000
v 0.000000 0.000000 -0.500000
v -0.500000 -0.034341 -0.500000
v -0.500000 -0.100000 -0.000000
v -0.500000 -0.034341 0.500000
v -0.500000 0.000000 -0.000000
v -0.500000 -0.034341 -0.500000
v -0.000000 -0.100000 0.500000
v -0.000000 0.000000 0.500000
v -0.500000 -0.034341 0.500000
v 0.500000 -0.034341 0.500000
v 0.500000 -0.100000 0.000000
v 0.500000 -0.034341 0.500000
v 0.500000 -0.034341 -0.500000
v 0.500000 -0.200000 0.000000
v 0.000000 -0.200000 -0.000000
v -0.000000 -0.200000 0.500000
v 0.000000 -0.200000 -0.500000
v 0.500000 -0.200000 0.000000
v 0.500000 -0.200000 0.000000
v 0.000000 -0.200000 -0.500000
v 0.500000 -0.034341 -0.500000
v -0.000000 -0.200000 0.500000
v 0.500000 -0.034341 0.500000
v -0.500000 -0.200000 -0.000000
v -0.500000 -0.034341 0.500000
v -0.500000 -0.034341 -0.500000
v 0.375000 0.000000 0.000000
v 0.000000 0.000000 -0.375000
v -0.000000 0.000000 0.375000
v -0.375000 0.000000 -0.000000
v 0.000000 -0.175000 -0.500000
v 0.375000 -0.100000 -0.500000
v -0.375000 -0.100000 -0.500000
v 0.000000 -0.025000 -0.500000
v -0.375000 -0.175000 -0.500000
v 0.375000 -0.175000 -0.500000
v 0.375000 -0.025000 -0.500000
v -0.375000 -0.025000 -0.500000
v -0.500000 -0.175000 -0.000000
v -0.500000 -0.100000 0.375000
v -0.500000 -0.100000 -0.375000
v -0.500000 -0.025000 -0.000000
v -0.500000 -0.175000 0.375000
v -0.500000 -0.175000 -0.375000
v -0.500000 -0.025000 0.375000
v -0.500000 -0.025000 -0.375000
v -0.000000 -0.175000 0.500000
v 0.375000 -0.100000 0.500000
v -0.375000 -0.100000 0.500000
v -0.000000 -0.025000 0.500000
v 0.375000 -0.175000 0.500000
v -0.375000 -0.175000 0.500000
v -0.375000 -0.025000 0.500000
v 0.375000 -0.025000 0.500000
v 0.500000 -0.175000 0.000000
v 0.500000 -0.100000 -0.375000
v 0.500000 -0.100000 0.375000
v 0.500000 -0.025000 0.000000
v 0.500000 -0.025000 0.375000
v 0.500000 -0.025000 -0.375000
v 0.500000 -0.175000 0.375000
v 0.500000 -0.175000 -0.375000
v 0.375000 -0.200000 -0.000000
v 0.000000 -0.200000 -0.375000
v -0.000000 -0.200000 0.375000
v -0.375000 -0.200000 -0.000000
v -0.375000 -0.200000 -0.375000
v -0.375000 -0.200000 0.375000
v 0.375000 -0.200000 0.375000
v 0.375000 -0.200000 -0.375000
v 0.444444 -0.188889 -0.444444
v 0.444444 -0.188889 0.444444
v -0.444444 -0.188889 0.444444
v -0.444444 -0.188889 -0.444445
v 0.420000 -0.016000 -0.420000
v 0.420000 -0.016000 0.420000
v -0.420000 -0.016000 0.420000
v -0.420000 -0.016000 -0.420000
v 0.277778 -0.155556 -0.500000
v -0.277778 -0.155556 -0.500000
v 0.277778 -0.044444 -0.500000
v -0.277778 -0.044444 -0.500000
v -0.500000 -0.155556 0.277778
v -0.500000 -0.155556 -0.277778
v -0.500000 -0.044444 0.277778
v -0.500000 -0.044444 -0.277778
v 0.277778 -0.155556 0.500000
v -0.277778 -0.155556 0.500000
v 0.277777 -0.044444 0.500000
v -0.277778 -0.044444 0.500000
v 0.500000 -0.155556 -0.277778
v 0.500000 -0.155556 0.277778
v 0.500000 -0.044444 -0.277778
v 0.500000 -0.044444 0.277778
v 0.277778 -0.200000 -0.277778
v 0.277778 -0.200000 0.277778
v -0.277778 -0.200000 -0.277778
v -0.277778 -0.200000 0.277778
vt 0.335617 0.187332
vt 0.392855 0.307016
vt 0.372620 0.333035
vt 0.335617 0.037004
vt 0.361634 0.057240
vt 0.398059 0.085571
vt 0.377245 0.182128
vt 0.421186 0.270591
vt 0.167808 0.167813
vt 0.167808 0.293673
vt 0.026849 0.308776
vt 0.041952 0.167813
vt 0.026849 0.026850
vt 0.167808 0.041953
vt 0.308767 0.026850
vt 0.293665 0.167813
vt 0.308767 0.308776
vt 0.167808 0.335626
vt 0.041952 0.335626
vt 0.293665 0.335626
vt 0.335617 0.814394
vt 0.391343 0.694054
vt 0.419957 0.730144
vt 0.377141 0.819110
vt 0.398917 0.915412
vt 0.362938 0.944166
vt 0.332192 0.483503
vt 0.276465 0.363164
vt 0.298527 0.337201
vt 0.332192 0.633630
vt 0.304870 0.613275
vt 0.268892 0.584522
vt 0.290668 0.488220
vt 0.247851 0.399254
vt 0.667808 0.480912
vt 0.612082 0.360572
vt 0.634143 0.334609
vt 0.667808 0.631038
vt 0.640487 0.610684
vt 0.604508 0.581930
vt 0.626284 0.485628
vt 0.583468 0.396662
vt 1.000000 0.518640
vt 0.972678 0.388868
vt 1.000000 0.368514
vt 0.966335 0.664943
vt 0.944274 0.638980
vt 0.915659 0.602890
vt 0.958476 0.513924
vt 0.936700 0.417622
vt 0.833904 0.499776
vt 0.709332 0.485628
vt 0.752149 0.396662
vt 0.848107 0.374720
vt 0.819702 0.624832
vt 0.731108 0.581930
vt 0.738335 0.140656
vt 0.715104 0.021192
vt 0.738335 0.000000
vt 0.852841 0.333035
vt 0.723535 0.360572
vt 0.000000 0.167813
vt 0.000000 0.041953
vt 0.000000 0.293673
vt 0.695130 0.610684
vt 0.814968 0.666517
vt 0.738335 0.281313
vt 0.715104 0.260120
vt 0.501713 0.499776
vt 0.515915 0.624832
vt 0.419957 0.602890
vt 0.377141 0.513924
vt 0.398917 0.417622
vt 0.487510 0.374720
vt 0.520649 0.666517
vt 0.691873 0.000000
vt 0.691873 0.140656
vt 0.668642 0.119464
vt 0.391343 0.638980
vt 0.167808 0.000000
vt 0.293665 0.000000
vt 0.041952 0.000000
vt 0.335617 0.518640
vt 0.362938 0.388868
vt 0.761567 0.281313
vt 0.738335 0.161849
vt 0.761567 0.140656
vt 0.482776 0.333035
vt 0.166096 0.502368
vt 0.180298 0.627424
vt 0.084341 0.605482
vt 0.041524 0.516516
vt 0.063300 0.420214
vt 0.151893 0.377312
vt 0.335617 0.167813
vt 0.335617 0.293673
vt 0.335617 0.041953
vt 0.000000 0.521232
vt 0.027321 0.391460
vt 0.055726 0.641572
vt 0.715104 0.281313
vt 0.691873 0.161849
vt 0.715104 0.140656
vt 0.147159 0.335626
vt 0.185032 0.669109
vt 0.691873 0.281313
vt 0.668642 0.260120
vt 0.501713 0.833259
vt 0.626284 0.847407
vt 0.583468 0.936373
vt 0.487510 0.958315
vt 0.515915 0.708203
vt 0.604508 0.751105
vt 0.691873 0.021192
vt 0.715104 0.000000
vt 0.667808 0.701997
vt 0.640487 0.722351
vt 0.482776 1.000000
vt 0.612082 0.972463
vt 0.634143 0.998426
vt 0.761567 0.000000
vt 0.738335 0.119464
vt 0.667808 0.852123
vt 0.502129 0.166517
vt 0.486519 0.041629
vt 0.583073 0.062444
vt 0.627014 0.150906
vt 0.606200 0.247463
vt 0.517740 0.291405
vt 0.522943 0.333035
vt 0.642624 0.275794
vt 0.668642 0.296031
vt 0.481315 0.000000
vt 0.631639 0.000000
vt 0.611403 0.026018
vt 0.668642 0.145703
vn -0.119100 -0.992100 0.039700
vn -0.119100 -0.992100 -0.039700
vn 0.000000 -1.000000 0.000000
vn 0.019000 0.999600 -0.019000
vn -0.019000 0.999600 -0.019000
vn -0.019000 0.999600 0.019000
vn 0.019000 0.999600 0.019000
vn 0.054400 0.997300 -0.048400
vn 0.054400 0.997300 0.048400
vn 1.000000 0.000000 0.000000
vn -0.063100 -0.946800 0.315600
vn 0.063100 -0.946800 0.315600
vn -0.000000 -0.000000 1.000000
vn -0.315600 -0.946800 -0.063100
vn -0.315600 -0.946800 0.063100
vn -1.000000 -0.000000 -0.000000
vn 0.063100 -0.946800 -0.315600
vn -0.063100 -0.946800 -0.315600
vn 0.000000 -0.000000 -1.000000
vn 0.073700 0.985600 -0.152300
vn 0.502700 -0.446700 -0.740100
vn -0.048400 0.997300 -0.054400
vn 0.048400 0.997300 -0.054400
vn -0.502700 -0.446700 -0.740100
vn -0.073700 0.985600 -0.152300
vn -0.740100 -0.446700 0.502700
vn -0.152300 0.985600 0.073700
vn -0.054400 0.997300 0.048400
vn -0.054400 0.997300 -0.048400
vn -0.152300 0.985600 -0.073700
vn -0.740100 -0.446700 -0.502700
vn 0.048400 0.997300 0.054400
vn -0.048400 0.997300 0.054400
vn -0.073700 0.985600 0.152300
vn -0.502700 -0.446700 0.740100
vn 0.502700 -0.446700 0.740100
vn 0.073700 0.985600 0.152300
vn 0.152300 0.985600 0.073700
vn 0.740100 -0.446700 0.502700
vn 0.740100 -0.446700 -0.502700
vn 0.152300 0.985600 -0.073700
vn 0.315600 -0.946800 0.063100
vn 0.315600 -0.946800 -0.063100
vn 0.039700 -0.992100 0.119100
vn -0.039700 -0.992100 0.119100
vn -0.039700 -0.992100 -0.119100
vn 0.039700 -0.992100 -0.119100
vn 0.119100 -0.992100 -0.039700
vn 0.119100 -0.992100 0.039700
usemtl Material
s off
f 1/1/1 76/2/1 81/3/1 32/1/1
f 1/1/2 32/1/2 82/4/2 75/5/2
f 1/1/3 75/5/3 105/6/3 74/7/3
f 1/1/3 74/7/3 106/8/3 76/2/3
f 2/9/4 35/10/4 83/11/4 36/12/4
f 2/9/5 36/12/5 86/13/5 38/14/5
f 2/9/6 38/14/6 85/15/6 37/16/6
f 2/9/7 37/16/7 84/17/7 35/10/7
f 3/18/8 68/19/8 83/11/8 35/10/8
f 3/18/9 35/10/9 84/17/9 67/20/9
f 3/21/10 67/22/10 102/23/10 66/24/10
f 3/21/10 66/24/10 101/25/10 68/26/10
f 4/27/11 60/28/11 81/29/11 30/27/11
f 4/27/12 30/27/12 80/30/12 59/31/12
f 4/27/13 59/31/13 95/32/13 55/33/13
f 4/27/13 55/33/13 96/34/13 60/28/13
f 5/35/14 52/36/14 82/37/14 32/35/14
f 5/35/15 32/35/15 81/38/15 51/39/15
f 5/35/16 51/39/16 91/40/16 47/41/16
f 5/35/16 47/41/16 92/42/16 52/36/16
f 6/43/17 44/44/17 79/45/17 28/43/17
f 6/43/18 28/43/18 82/46/18 43/47/18
f 6/43/19 43/47/19 88/48/19 39/49/19
f 6/43/19 39/49/19 87/50/19 44/44/19
f 7/51/19 42/52/19 89/53/19 40/54/19
f 7/51/19 40/54/19 87/50/19 39/49/19
f 7/51/19 39/49/19 88/48/19 41/55/19
f 7/51/19 41/55/19 90/56/19 42/52/19
f 8/57/20 45/58/20 83/59/20 29/57/20
f 8/60/21 29/60/21 79/45/21 44/44/21
f 8/60/19 44/44/19 87/50/19 40/54/19
f 8/60/19 40/54/19 89/53/19 45/61/19
f 9/62/22 46/63/22 86/13/22 36/12/22
f 9/62/23 36/12/23 83/11/23 45/64/23
f 9/35/19 45/61/19 89/53/19 42/52/19
f 9/35/19 42/52/19 90/56/19 46/65/19
f 10/66/24 43/47/24 82/46/24 34/66/24
f 10/57/25 34/57/25 86/67/25 46/68/25
f 10/66/19 46/65/19 90/56/19 41/55/19
f 10/66/19 41/55/19 88/48/19 43/47/19
f 11/69/16 47/41/16 91/40/16 48/70/16
f 11/69/16 48/70/16 93/71/16 50/72/16
f 11/69/16 50/72/16 94/73/16 49/74/16
f 11/69/16 49/74/16 92/42/16 47/41/16
f 12/75/26 51/39/26 81/38/26 33/75/26
f 12/76/27 33/76/27 85/77/27 53/78/27
f 12/75/16 53/79/16 93/71/16 48/70/16
f 12/75/16 48/70/16 91/40/16 51/39/16
f 13/80/28 53/81/28 85/15/28 38/14/28
f 13/80/29 38/14/29 86/13/29 54/82/29
f 13/83/16 54/84/16 94/73/16 50/72/16
f 13/83/16 50/72/16 93/71/16 53/79/16
f 14/85/30 54/86/30 86/87/30 34/85/30
f 14/88/31 34/88/31 82/37/31 52/36/31
f 14/88/16 52/36/16 92/42/16 49/74/16
f 14/88/16 49/74/16 94/73/16 54/84/16
f 15/89/13 55/33/13 95/32/13 56/90/13
f 15/89/13 56/90/13 97/91/13 58/92/13
f 15/89/13 58/92/13 98/93/13 57/94/13
f 15/89/13 57/94/13 96/34/13 55/33/13
f 16/95/32 62/96/32 84/17/32 37/16/32
f 16/95/33 37/16/33 85/15/33 61/97/33
f 16/98/13 61/99/13 98/93/13 58/92/13
f 16/98/13 58/92/13 97/91/13 62/100/13
f 17/101/34 61/102/34 85/103/34 33/101/34
f 17/104/35 33/104/35 81/29/35 60/28/35
f 17/104/13 60/28/13 96/34/13 57/94/13
f 17/104/13 57/94/13 98/93/13 61/99/13
f 18/105/36 59/31/36 80/30/36 31/105/36
f 18/77/37 31/77/37 84/106/37 62/107/37
f 18/105/13 62/100/13 97/91/13 56/90/13
f 18/105/13 56/90/13 95/32/13 59/31/13
f 19/108/10 63/109/10 99/110/10 64/111/10
f 19/108/10 64/111/10 101/25/10 66/24/10
f 19/108/10 66/24/10 102/23/10 65/112/10
f 19/108/10 65/112/10 100/113/10 63/109/10
f 20/103/38 67/114/38 84/115/38 31/103/38
f 20/75/39 31/75/39 80/116/39 69/117/39
f 20/75/10 69/117/10 100/113/10 65/112/10
f 20/75/10 65/112/10 102/23/10 67/22/10
f 21/118/40 70/119/40 79/120/40 29/118/40
f 21/121/41 29/121/41 83/87/41 68/122/41
f 21/118/10 68/26/10 101/25/10 64/111/10
f 21/118/10 64/111/10 99/110/10 70/119/10
f 22/123/42 69/117/42 80/116/42 27/123/42
f 22/123/43 27/123/43 79/120/43 70/119/43
f 22/123/10 70/119/10 99/110/10 63/109/10
f 22/123/10 63/109/10 100/113/10 69/117/10
f 23/124/3 72/125/3 103/126/3 71/127/3
f 23/124/3 71/127/3 104/128/3 73/129/3
f 23/124/3 73/129/3 106/8/3 74/7/3
f 23/124/3 74/7/3 105/6/3 72/125/3
f 24/130/44 77/131/44 80/132/44 30/130/44
f 24/130/45 30/130/45 81/3/45 76/2/45
f 24/130/3 76/2/3 106/8/3 73/129/3
f 24/130/3 73/129/3 104/128/3 77/131/3
f 25/133/46 75/5/46 82/4/46 28/133/46
f 25/133/47 28/133/47 79/134/47 78/135/47
f 25/133/3 78/135/3 103/126/3 72/125/3
f 25/133/3 72/125/3 105/6/3 75/5/3
f 26/136/48 78/135/48 79/134/48 27/136/48
f 26/136/49 27/136/49 80/132/49 77/131/49
f 26/136/3 77/131/3 104/128/3 71/127/3
f 26/136/3 71/127/3 103/126/3 78/135/3
